<svg width="793" height="753" viewBox="0 0 793 753" fill="none" xmlns="http://www.w3.org/2000/svg">
<path d="M235.805 353.622C216.488 353.622 197.806 346.723 183.125 334.168C178.227 329.976 173.009 322.688 167.615 312.508C164.173 305.95 162.245 298.705 161.973 291.304C161.702 283.903 163.093 276.535 166.044 269.743C163.199 272.637 160.052 275.218 156.657 277.442L154.941 278.584L154.842 276.526C154.777 275.188 154.744 273.854 154.744 272.561C154.744 264.946 160.504 257.218 157.848 250.178C146.651 220.509 111.139 191.024 162.607 145.107C167.368 140.859 161.008 132.367 161.008 125.94C161.008 62.9584 229.441 -31.5196 275.251 11.7191C301.992 36.958 357.704 54.8873 383.715 89.993L384.06 91.033L383.045 91.444C377.847 93.628 372.373 95.084 366.778 95.771C372.743 96.987 378.831 97.497 384.916 97.29L385.859 97.257L386.089 98.174C388.353 107.256 389.497 116.581 389.495 125.94L389.491 126.952C389.47 134.061 390.947 141.095 393.827 147.595C396.707 154.094 400.924 159.914 406.204 164.675C414.543 172.279 421.207 181.537 425.771 191.859C430.335 202.181 432.698 213.34 432.709 224.626C432.709 237.978 423.635 255.505 416.022 267.857C414.092 271.003 411.476 273.672 408.368 275.662C405.26 277.653 401.741 278.914 398.076 279.351C394.605 279.789 391.08 279.458 387.751 278.383C384.421 277.307 381.369 275.513 378.81 273.127C382.413 280.372 387.109 287.02 392.732 292.838L393.771 293.909L392.481 294.66C380.087 301.887 365.996 305.693 351.65 305.687L350.809 305.685C329.028 305.685 308.353 314.123 294.086 328.837C286.511 336.64 277.453 342.852 267.446 347.108C257.438 351.364 246.68 353.579 235.805 353.622Z" fill="#6C63FF"/>
<path d="M207.22 480.6C206.87 480.599 206.531 480.472 206.266 480.242C206.001 480.012 205.828 479.695 205.779 479.347C205.717 478.912 199.651 435.16 205.099 377.012C210.131 323.311 226.289 245.962 274.693 182.437C274.809 182.285 274.954 182.157 275.12 182.061C275.285 181.964 275.468 181.902 275.658 181.876C275.848 181.85 276.04 181.862 276.226 181.911C276.411 181.96 276.584 182.045 276.736 182.161C276.889 182.277 277.017 182.422 277.113 182.588C277.209 182.753 277.272 182.936 277.298 183.126C277.323 183.315 277.311 183.508 277.262 183.693C277.213 183.878 277.129 184.052 277.012 184.204C229.026 247.181 212.998 323.962 208.002 377.284C202.585 435.094 208.604 478.505 208.666 478.936C208.695 479.143 208.679 479.354 208.62 479.554C208.561 479.755 208.459 479.94 208.322 480.098C208.185 480.255 208.016 480.382 207.826 480.468C207.636 480.555 207.429 480.6 207.22 480.6Z" fill="#CCCCCC"/>
<path d="M251.418 270.435C251.11 270.435 250.81 270.338 250.56 270.157C250.311 269.976 250.126 269.721 250.03 269.428C249.935 269.136 249.935 268.82 250.03 268.527C250.125 268.234 250.31 267.979 250.559 267.798C264.352 258.462 279.251 250.877 294.916 245.218C319.388 236.259 356.601 228.137 394.912 240.33C395.094 240.388 395.263 240.481 395.41 240.604C395.556 240.728 395.676 240.879 395.764 241.049C395.852 241.219 395.906 241.405 395.922 241.595C395.938 241.786 395.917 241.978 395.859 242.161C395.801 242.343 395.707 242.512 395.584 242.658C395.46 242.805 395.309 242.925 395.139 243.013C394.969 243.101 394.784 243.155 394.593 243.171C394.402 243.187 394.21 243.166 394.028 243.108C356.502 231.165 319.963 239.153 295.918 247.956C280.506 253.518 265.845 260.976 252.273 270.156C252.025 270.338 251.725 270.435 251.418 270.435Z" fill="#CCCCCC"/>
<path d="M183.697 98.259C183.675 97.952 183.75 97.646 183.913 97.384C184.075 97.123 184.316 96.919 184.601 96.803C184.886 96.687 185.201 96.664 185.5 96.738C185.799 96.812 186.067 96.978 186.266 97.213C196.57 110.298 205.208 124.613 211.981 139.828C222.679 163.592 233.461 200.124 224.058 239.213C224.014 239.399 223.933 239.575 223.82 239.73C223.708 239.885 223.566 240.016 223.402 240.116C223.239 240.216 223.058 240.283 222.868 240.313C222.679 240.343 222.486 240.335 222.3 240.29C222.114 240.246 221.938 240.164 221.783 240.052C221.628 239.939 221.497 239.797 221.397 239.634C221.297 239.47 221.231 239.289 221.201 239.1C221.171 238.91 221.179 238.717 221.224 238.531C230.433 200.243 219.834 164.374 209.322 141.025C202.665 126.054 194.171 111.968 184.037 99.093C183.838 98.858 183.719 98.566 183.697 98.259Z" fill="#CCCCCC"/>
<path d="M539.353 569.178C439.085 569.178 362.123 563.9 308.705 542.739C178.596 491.199 134.487 469.796 134.056 469.586L134.934 467.789C135.364 467.999 179.429 489.378 309.441 540.88C386.558 571.43 513.44 568.705 689.057 564.932C722.012 564.225 756.089 563.493 792.381 562.91L792.412 564.91C756.127 565.493 722.052 566.224 689.1 566.932C634.469 568.105 584.541 569.178 539.353 569.178Z" fill="#CCCCCC"/>
<path d="M116.202 700.394L114.788 698.98C163.368 650.4 182.089 631.827 186.055 627.897L42.9097 524.498L44.0806 522.877L189.141 627.659L188.3 628.489C188.14 628.648 171.558 645.039 116.202 700.394Z" fill="#CCCCCC"/>
<path d="M188.28 752.679L186.916 751.216C191.397 747.033 296.804 648.88 317.344 648.88H317.409L789.505 653.687L789.485 655.687L317.389 650.88H317.331C297.593 650.88 189.372 751.659 188.28 752.679Z" fill="#CCCCCC"/>
<path d="M779.495 599.687H658.243V601.687H779.495V599.687Z" fill="#CCCCCC"/>
<path d="M552.495 599.687H431.243V601.687H552.495V599.687Z" fill="#CCCCCC"/>
<path d="M425.495 438.529H355.495V420.845H381.495C383.086 420.845 384.613 420.213 385.738 419.088C386.863 417.962 387.495 416.436 387.495 414.845V395.687C387.495 394.096 386.863 392.57 385.738 391.444C384.613 390.319 383.086 389.687 381.495 389.687H355.495V383.687C355.495 381.565 354.652 379.531 353.152 378.03C351.652 376.53 349.617 375.687 347.495 375.687C345.373 375.687 343.339 376.53 341.838 378.03C340.338 379.531 339.495 381.565 339.495 383.687V389.687H243.404C242.162 389.687 240.951 390.073 239.937 390.79L226.41 400.369C225.627 400.924 224.989 401.658 224.548 402.51C224.107 403.362 223.877 404.307 223.877 405.266C223.877 406.225 224.107 407.17 224.548 408.022C224.989 408.874 225.627 409.608 226.41 410.163L239.937 419.742C240.951 420.459 242.162 420.845 243.404 420.845H339.495V438.529H269.495C267.904 438.529 266.378 439.161 265.253 440.287C264.127 441.412 263.495 442.938 263.495 444.529V463.687C263.495 465.278 264.127 466.805 265.253 467.93C266.378 469.055 267.904 469.687 269.495 469.687H339.495V535.687C339.495 537.809 340.338 539.844 341.838 541.344C343.339 542.844 345.373 543.687 347.495 543.687C349.617 543.687 351.652 542.844 353.152 541.344C354.652 539.844 355.495 537.809 355.495 535.687V469.687H425.495C427.086 469.687 428.613 469.055 429.738 467.93C430.863 466.805 431.495 465.278 431.495 463.687V444.529C431.495 443.741 431.34 442.961 431.038 442.233C430.737 441.505 430.295 440.844 429.738 440.287C429.181 439.729 428.519 439.287 427.791 438.986C427.063 438.684 426.283 438.529 425.495 438.529Z" fill="#3F3D56"/>
<path d="M307.495 406.187H257.495C256.567 406.187 255.677 405.818 255.02 405.162C254.364 404.506 253.995 403.615 253.995 402.687C253.995 401.759 254.364 400.869 255.02 400.212C255.677 399.556 256.567 399.187 257.495 399.187H307.495C308.423 399.187 309.314 399.556 309.97 400.212C310.626 400.869 310.995 401.759 310.995 402.687C310.995 403.615 310.626 404.506 309.97 405.162C309.314 405.818 308.423 406.187 307.495 406.187Z" fill="#6C63FF"/>
<path d="M369.495 457.187H319.495C318.567 457.187 317.677 456.818 317.02 456.162C316.364 455.506 315.995 454.615 315.995 453.687C315.995 452.759 316.364 451.869 317.02 451.212C317.677 450.556 318.567 450.187 319.495 450.187H369.495C370.423 450.187 371.314 450.556 371.97 451.212C372.626 451.869 372.995 452.759 372.995 453.687C372.995 454.615 372.626 455.506 371.97 456.162C371.314 456.818 370.423 457.187 369.495 457.187Z" fill="white"/>
<path d="M129.495 538.529V520.845H155.495C157.086 520.845 158.613 520.213 159.738 519.088C160.863 517.962 161.495 516.436 161.495 514.845V495.687C161.495 494.096 160.863 492.57 159.738 491.444C158.613 490.319 157.086 489.687 155.495 489.687H129.495V483.961C129.522 481.897 128.767 479.898 127.382 478.367C125.997 476.836 124.084 475.885 122.028 475.704C120.935 475.632 119.838 475.784 118.807 476.152C117.775 476.52 116.83 477.097 116.03 477.845C115.23 478.593 114.592 479.498 114.156 480.503C113.72 481.508 113.495 482.592 113.495 483.687V489.687L5.8864 540.036C5.44634 540.241 5.053 540.534 4.73068 540.897C4.40836 541.261 4.16389 541.686 4.01239 542.147C3.1648 544.729 1.38429 550.239 0.173262 554.585C-0.0212311 555.29 -0.0472689 556.031 0.0972581 556.748C0.241785 557.466 0.552838 558.139 1.00531 558.714C1.45778 559.288 2.03901 559.749 2.70213 560.058C3.36525 560.367 4.0917 560.516 4.82289 560.492C11.7577 560.279 16.3206 559.956 19.4875 559.868C20.0983 559.851 20.6998 559.713 21.2573 559.463L113.495 520.845V569.687V635.413C113.468 637.478 114.223 639.476 115.608 641.007C116.993 642.539 118.906 643.49 120.963 643.67C122.056 643.743 123.152 643.59 124.184 643.222C125.215 642.854 126.161 642.278 126.96 641.529C127.76 640.781 128.398 639.876 128.834 638.871C129.27 637.866 129.495 636.783 129.495 635.687V538.529Z" fill="#3F3D56"/>
<path d="M87.7395 521.154L42.1141 541.607C41.2671 541.987 40.3039 542.015 39.4365 541.684C38.569 541.354 37.8684 540.692 37.4887 539.845C37.1089 538.998 37.0813 538.035 37.4117 537.168C37.7422 536.3 38.4037 535.6 39.2507 535.22L84.8761 514.767C85.7231 514.387 86.6863 514.359 87.5537 514.69C88.4212 515.02 89.1218 515.682 89.5016 516.529C89.8813 517.376 89.9089 518.339 89.5785 519.207C89.248 520.074 88.5865 520.775 87.7395 521.154Z" fill="white"/>
<path d="M699.186 358.224L678.336 360.339C677.39 371.053 679.257 381.827 683.754 391.597L677.497 449.868L677.59 449.867C676.973 450.931 676.659 452.144 676.68 453.374C676.701 454.603 677.057 455.804 677.71 456.847C678.363 457.889 679.287 458.734 680.384 459.291C681.481 459.847 682.709 460.094 683.936 460.005C685.163 459.915 686.342 459.493 687.347 458.784C688.352 458.074 689.144 457.104 689.639 455.978C690.134 454.852 690.312 453.612 690.155 452.392C689.998 451.172 689.511 450.018 688.747 449.054L702.652 397.061L699.186 358.224Z" fill="#A0616A"/>
<path d="M635.054 614.01L626.195 612.483L625.327 585.741L640.942 579.836L635.054 614.01Z" fill="#A0616A"/>
<path d="M633.774 623.306L606.529 618.612L606.588 618.268C607.073 615.455 608.655 612.951 610.986 611.305C613.317 609.658 616.207 609.006 619.02 609.49L624.647 606.572L633.282 611.947L635.661 612.357L633.774 623.306Z" fill="#2F2E41"/>
<path d="M723.94 595.495L716.268 600.18L694.542 572.815L705.867 565.9L723.94 595.495Z" fill="#A0616A"/>
<path d="M729.099 603.334L705.504 617.743L705.322 617.445C703.835 615.009 703.376 612.083 704.046 609.309C704.716 606.535 706.461 604.14 708.897 602.653V602.652L711.21 596.751L721.248 595.11L723.308 593.852L729.099 603.334Z" fill="#2F2E41"/>
<path d="M638.084 451.372L632.768 471.573C632.768 471.573 631.317 479.945 632.069 480.697C633.351 482.512 633.998 484.699 633.91 486.92C633.573 488.968 630.133 488.133 631.853 491.183C633.573 494.232 628.257 540.632 628.257 540.632L623.495 597.687L640.495 599.687C642.936 598.258 643.294 596.633 641.853 594.838C641.853 594.838 645.34 590.817 643.418 589.252C641.495 587.687 644.968 587.033 645.157 583.04L656.13 543.859L659.762 535.1L658.812 530.531L661.571 525.286L662.898 511.526L666.495 547.687L700.093 586.269L716.635 577.997L717.606 575.883C718.005 575.013 718.073 574.028 717.797 573.112C717.521 572.196 716.92 571.412 716.107 570.907L710.495 565.687C710.976 563.537 703.341 558.145 703.341 558.145L690.558 534.084L698.495 466.687C698.495 466.687 710.495 450.687 694.598 436.209C688.085 430.278 638.084 451.372 638.084 451.372Z" fill="#2F2E41"/>
<path d="M689.244 424.832C692.062 420.644 698.83 426.659 696.574 419.14C694.318 411.621 688.61 410.223 693.72 403.027L701.085 367.156C701.527 358.595 698.62 350.197 692.979 343.742L682.376 331.608L680.783 327.304L662.737 326.552L661.233 331.816C655.842 338.529 647.019 347.148 647.283 359.827C647.791 384.224 643.986 416.688 634.615 458.921C634.615 458.921 655.573 442.556 662.163 449.646C668.753 456.736 688.605 454.809 693.566 449.868C696.745 446.452 699.065 442.328 700.333 437.837C700.333 437.837 686.426 429.021 689.244 424.832Z" fill="#6C63FF"/>
<path d="M700.639 453.287L659.495 441.687L632.495 454.687C644.584 432.193 651.94 394.74 649.617 362.923C649.059 356.163 650.386 349.38 653.452 343.328C657.164 336.184 662.969 331.137 671.495 331.687L682.495 330.687L689.495 334.687C699.624 345.298 703.608 361.13 702.032 375.715C700.292 391.813 698.127 411.368 697.69 413.115C697.434 414.141 698.244 415.943 699.101 417.85C700.549 421.068 702.35 425.074 699.847 427.576C699.09 428.247 698.481 429.067 698.058 429.986C697.636 430.905 697.409 431.902 697.393 432.913C697.457 433.813 697.705 434.689 698.124 435.488C698.543 436.286 699.123 436.989 699.827 437.553C703.024 440.314 700.799 452.43 700.703 452.945L700.639 453.287Z" fill="#2F2E41"/>
<path d="M679.649 373.616L658.978 370.164C655.243 380.25 654.206 391.136 655.97 401.745L634.584 456.31L634.674 456.333C633.799 457.197 633.177 458.284 632.873 459.476C632.569 460.668 632.597 461.92 632.952 463.098C633.307 464.276 633.976 465.334 634.888 466.16C635.799 466.986 636.919 467.547 638.126 467.784C639.333 468.021 640.582 467.925 641.738 467.505C642.894 467.085 643.914 466.358 644.688 465.402C645.462 464.446 645.961 463.297 646.13 462.079C646.3 460.861 646.134 459.619 645.651 458.488L672.761 411.994L679.649 373.616Z" fill="#A0616A"/>
<path d="M655.495 384.687L679.495 379.687L683.415 362.269C683.412 358.681 681.985 355.242 679.447 352.706C676.909 350.17 673.468 348.746 669.88 348.746C666.293 348.746 662.852 350.17 660.314 352.706C657.776 355.242 656.349 358.681 656.346 362.269C653.927 371.962 654.349 374.771 655.495 384.687Z" fill="#6C63FF"/>
<path d="M671.008 324.297C681.39 324.297 689.807 315.88 689.807 305.499C689.807 295.117 681.39 286.7 671.008 286.7C660.627 286.7 652.21 295.117 652.21 305.499C652.21 315.88 660.627 324.297 671.008 324.297Z" fill="#A0616A"/>
<path d="M692.814 291.212C691.351 288.594 685.533 291.943 683.729 289.547C682.299 287.46 680.48 285.67 678.37 284.273C676.622 283.257 674.639 282.71 672.617 282.688C670.594 282.665 668.6 283.167 666.83 284.145C665.532 285.07 664.143 285.86 662.684 286.501C661.165 286.986 659.183 286.619 658.525 285.167C658.989 286.436 659.453 287.705 659.917 288.974C658.687 289.543 657.288 289.63 655.997 289.218C654.705 288.806 653.615 287.925 652.942 286.749C652.861 288.063 652.779 289.376 652.697 290.69C652.589 290.331 652.355 290.022 652.038 289.82C651.722 289.618 651.343 289.536 650.971 289.589C650.504 289.73 650.082 289.99 649.744 290.343C649.407 290.695 649.167 291.129 649.047 291.602C647.86 295.094 650.7 299.17 654.341 299.755C656.594 300.117 658.859 299.394 661.12 299.088C663.38 298.781 665.997 299.037 667.425 300.816C668.827 302.564 668.556 305.053 668.637 307.292C668.718 309.531 669.697 312.217 671.917 312.516C673.441 312.721 674.897 311.658 676.432 311.749C678.622 311.879 680.027 314.397 679.791 316.578C679.555 318.76 678.183 320.628 676.86 322.378C679.047 322.551 681.235 322.724 683.423 322.897L682.575 323.133C687.928 322.871 692.059 317.676 692.698 312.355C693.337 307.034 695.429 295.89 692.814 291.212Z" fill="#2F2E41"/>
</svg>
